<mxfile host="app.diagrams.net" modified="2024-01-17T09:08:03.164Z" agent="Mozilla/5.0 (X11; Linux x86_64; rv:109.0) Gecko/20100101 Firefox/117.0" etag="-mHXCuI5lzkB4pD0purL" version="22.1.17" type="github">
  <diagram name="Page-1" id="3ru46msaVa-fcY4PBklA">
    <mxGraphModel dx="2074" dy="1154" grid="1" gridSize="10" guides="1" tooltips="1" connect="1" arrows="1" fold="1" page="1" pageScale="1" pageWidth="850" pageHeight="1100" math="0" shadow="0">
      <root>
        <mxCell id="0" />
        <mxCell id="1" parent="0" />
        <mxCell id="DIYFtBK_Z-nOlcPSbF_t-28" style="edgeStyle=orthogonalEdgeStyle;rounded=0;orthogonalLoop=1;jettySize=auto;html=1;entryX=0;entryY=0.5;entryDx=0;entryDy=0;" edge="1" parent="1" source="DIYFtBK_Z-nOlcPSbF_t-1" target="DIYFtBK_Z-nOlcPSbF_t-13">
          <mxGeometry relative="1" as="geometry" />
        </mxCell>
        <mxCell id="DIYFtBK_Z-nOlcPSbF_t-1" value="" style="verticalLabelPosition=bottom;html=1;verticalAlign=top;align=center;strokeColor=none;fillColor=#00BEF2;shape=mxgraph.azure.git_repository;" vertex="1" parent="1">
          <mxGeometry x="165" y="550" width="50" height="50" as="geometry" />
        </mxCell>
        <mxCell id="DIYFtBK_Z-nOlcPSbF_t-2" value="ALUs processors" style="text;html=1;strokeColor=none;fillColor=none;align=center;verticalAlign=middle;whiteSpace=wrap;rounded=0;" vertex="1" parent="1">
          <mxGeometry x="160" y="605" width="60" height="30" as="geometry" />
        </mxCell>
        <mxCell id="DIYFtBK_Z-nOlcPSbF_t-26" style="edgeStyle=orthogonalEdgeStyle;rounded=0;orthogonalLoop=1;jettySize=auto;html=1;entryX=0.5;entryY=1;entryDx=0;entryDy=0;" edge="1" parent="1" source="DIYFtBK_Z-nOlcPSbF_t-4" target="DIYFtBK_Z-nOlcPSbF_t-21">
          <mxGeometry relative="1" as="geometry" />
        </mxCell>
        <mxCell id="DIYFtBK_Z-nOlcPSbF_t-4" value="" style="verticalLabelPosition=bottom;html=1;verticalAlign=top;align=center;strokeColor=none;fillColor=#00BEF2;shape=mxgraph.azure.git_repository;" vertex="1" parent="1">
          <mxGeometry x="579.5" y="720" width="50" height="50" as="geometry" />
        </mxCell>
        <mxCell id="DIYFtBK_Z-nOlcPSbF_t-5" value="ALUs-platform" style="text;html=1;strokeColor=none;fillColor=none;align=center;verticalAlign=middle;whiteSpace=wrap;rounded=0;" vertex="1" parent="1">
          <mxGeometry x="557" y="770" width="95" height="30" as="geometry" />
        </mxCell>
        <mxCell id="DIYFtBK_Z-nOlcPSbF_t-25" style="edgeStyle=orthogonalEdgeStyle;rounded=0;orthogonalLoop=1;jettySize=auto;html=1;entryX=0.5;entryY=1;entryDx=0;entryDy=0;" edge="1" parent="1" source="DIYFtBK_Z-nOlcPSbF_t-6" target="DIYFtBK_Z-nOlcPSbF_t-13">
          <mxGeometry relative="1" as="geometry" />
        </mxCell>
        <mxCell id="DIYFtBK_Z-nOlcPSbF_t-6" value="" style="verticalLabelPosition=bottom;html=1;verticalAlign=top;align=center;strokeColor=none;fillColor=#00BEF2;shape=mxgraph.azure.git_repository;" vertex="1" parent="1">
          <mxGeometry x="355" y="720" width="50" height="50" as="geometry" />
        </mxCell>
        <mxCell id="DIYFtBK_Z-nOlcPSbF_t-7" value="ALUs-service" style="text;html=1;strokeColor=none;fillColor=none;align=center;verticalAlign=middle;whiteSpace=wrap;rounded=0;" vertex="1" parent="1">
          <mxGeometry x="335" y="770" width="90" height="30" as="geometry" />
        </mxCell>
        <mxCell id="DIYFtBK_Z-nOlcPSbF_t-12" value="" style="shape=image;html=1;verticalAlign=top;verticalLabelPosition=bottom;labelBackgroundColor=#ffffff;imageAspect=0;aspect=fixed;image=https://cdn0.iconfinder.com/data/icons/social-media-2127/48/social_media_social_media_logo_docker-128.png" vertex="1" parent="1">
          <mxGeometry x="547.5" y="504" width="128" height="128" as="geometry" />
        </mxCell>
        <mxCell id="DIYFtBK_Z-nOlcPSbF_t-13" value="&lt;div&gt;Service providers&lt;/div&gt;" style="swimlane;whiteSpace=wrap;html=1;" vertex="1" parent="1">
          <mxGeometry x="290" y="490" width="180" height="170" as="geometry" />
        </mxCell>
        <mxCell id="DIYFtBK_Z-nOlcPSbF_t-14" value="" style="image;html=1;image=img/lib/clip_art/general/Earth_globe_128x128.png" vertex="1" parent="DIYFtBK_Z-nOlcPSbF_t-13">
          <mxGeometry x="10" y="55" width="80" height="80" as="geometry" />
        </mxCell>
        <mxCell id="DIYFtBK_Z-nOlcPSbF_t-15" value="" style="editableCssRules=.*;html=1;shape=image;verticalLabelPosition=bottom;labelBackgroundColor=#ffffff;verticalAlign=top;aspect=fixed;imageAspect=0;image=data:image/svg+xml,PHN2ZyB4bWxucz0iaHR0cDovL3d3dy53My5vcmcvMjAwMC9zdmciIHhtbG5zOnY9Imh0dHBzOi8vdmVjdGEuaW8vbmFubyIgd2lkdGg9IjIwIiBoZWlnaHQ9IjIwIiB2aWV3Qm94PSIwIDAgMjAgMjAiPiYjeGE7CTxzdHlsZSB0eXBlPSJ0ZXh0L2NzcyI+JiN4YTsJLnN0MHtmaWxsOiM0Mjg1ZjQ7fSYjeGE7CTwvc3R5bGU+JiN4YTsJPHBhdGggY2xhc3M9InN0MCIgZD0iTTEzLjMzIDB2Mi4zOGgtMi4xNlYwSDguODN2Mi4zOEg2LjY3VjBINC4yOXYyLjM4YTIgMiAwIDAgMC0xLjkxIDEuOTFIMHYyLjM4aDIuMzh2Mi4xNEgwdjIuMzhoMi4zOHYyLjE0SDB2Mi4zOGgyLjM4YTIgMiAwIDAgMCAxLjkxIDEuOTFWMjBoMi4zOHYtMi4zOGgyLjE2VjIwaDIuMzR2LTIuMzhoMi4xNlYyMGgyLjM4di0yLjM4YTIgMiAwIDAgMCAxLjkxLTEuOTFIMjB2LTIuMzhoLTIuMzh2LTIuMTRIMjBWOC44MWgtMi4zOFY2LjY3SDIwVjQuMjloLTIuMzhhMiAyIDAgMCAwLTEuOTEtMS45MVYwem0xLjUzIDE1LjI0SDUuMTRhLjM4LjM4IDAgMCAxLS4zOC0uMzhWNS4xNGEuMzguMzggMCAwIDEgLjM4LS4zOGg5LjcyYS4zOC4zOCAwIDAgMSAuMzguMzh2OS43MmEuMzguMzggMCAwIDEtLjM4LjM4em0tMi4wNy02LjEybC0zLjUgNC44NnYtMy42M0g3LjIybDMuNjEtNC44MXYzLjU4eiIvPiYjeGE7PC9zdmc+;" vertex="1" parent="DIYFtBK_Z-nOlcPSbF_t-13">
          <mxGeometry x="110" y="65" width="60" height="60" as="geometry" />
        </mxCell>
        <mxCell id="DIYFtBK_Z-nOlcPSbF_t-27" style="edgeStyle=orthogonalEdgeStyle;rounded=0;orthogonalLoop=1;jettySize=auto;html=1;entryX=1;entryY=0.5;entryDx=0;entryDy=0;" edge="1" parent="1" source="DIYFtBK_Z-nOlcPSbF_t-21" target="DIYFtBK_Z-nOlcPSbF_t-13">
          <mxGeometry relative="1" as="geometry" />
        </mxCell>
        <mxCell id="DIYFtBK_Z-nOlcPSbF_t-21" value="" style="whiteSpace=wrap;html=1;aspect=fixed;fillOpacity=0;" vertex="1" parent="1">
          <mxGeometry x="547.5" y="517" width="115" height="115" as="geometry" />
        </mxCell>
      </root>
    </mxGraphModel>
  </diagram>
</mxfile>
